<svg width="2530" height="504" viewBox="0 0 2530 504" fill="none" xmlns="http://www.w3.org/2000/svg">
<g opacity="0.6">
<g opacity="0.71" filter="url(#filter0_f_62_68)">
<path opacity="0.6" d="M1270.24 158.931C1265.63 167.149 1255.01 172.996 1243.58 173.47C1232.16 173.944 1220.73 169.203 1214.92 161.618C1201.89 169.203 1182.25 168.729 1169.83 160.67C1164.01 165.569 1152.79 165.727 1146.98 160.828C1140.97 155.929 1141.57 147.237 1147.98 142.812C1152.79 139.493 1165.82 136.333 1172.63 137.597C1172.63 133.33 1173.84 129.063 1178.85 126.219C1186.06 122.11 1196.48 121.952 1203.9 125.745C1202.1 123.374 1203.1 119.898 1205.9 118.317C1208.71 116.737 1213.12 117.053 1215.52 119.107C1206.7 115.157 1205.9 103.462 1214.32 98.7213C1222.74 93.9804 1236.37 98.5633 1238.17 106.465C1243.78 101.724 1253.8 100.776 1260.82 104.41C1267.63 107.887 1270.84 115.473 1267.63 121.478C1272.64 119.423 1279.06 120.056 1283.47 122.742C1287.88 125.429 1289.88 130.486 1288.28 134.752C1295.29 134.594 1302.71 135.859 1308.12 139.335C1313.53 142.812 1316.54 148.817 1314.53 154.19C1312.33 159.405 1304.51 163.198 1297.9 161.144C1298.3 167.623 1288.68 172.048 1280.66 170.942C1272.64 169.835 1266.23 165.253 1260.82 160.512" fill="url(#paint0_linear_62_68)"/>
<path opacity="0.6" d="M984.24 292.931C979.63 301.149 969.007 306.996 957.583 307.47C946.159 307.944 934.735 303.203 928.922 295.618C915.895 303.203 896.253 302.729 883.827 294.67C878.014 299.569 866.791 299.727 860.978 294.828C854.965 289.929 855.567 281.237 861.98 276.812C866.791 273.493 879.818 270.333 886.633 271.597C886.633 267.33 887.835 263.063 892.846 260.219C900.061 256.11 910.483 255.952 917.899 259.745C916.095 257.374 917.097 253.898 919.903 252.317C922.709 250.737 927.119 251.053 929.524 253.107C920.705 249.157 919.903 237.462 928.321 232.721C936.739 227.98 950.368 232.563 952.172 240.465C957.784 235.724 967.805 234.776 974.82 238.41C981.634 241.887 984.841 249.473 981.634 255.478C986.645 253.423 993.058 254.056 997.468 256.742C1001.88 259.429 1003.88 264.486 1002.28 268.753C1009.29 268.594 1016.71 269.859 1022.12 273.335C1027.53 276.812 1030.54 282.817 1028.53 288.19C1026.33 293.405 1018.51 297.198 1011.9 295.144C1012.3 301.623 1002.68 306.048 994.662 304.942C986.645 303.835 980.231 299.253 974.82 294.512" fill="url(#paint1_linear_62_68)"/>
<path opacity="0.6" d="M164.24 111.931C159.63 120.149 149.007 125.996 137.583 126.47C126.159 126.944 114.735 122.203 108.922 114.618C95.8947 122.203 76.253 121.729 63.8267 113.67C58.0143 118.569 46.7905 118.727 40.9782 113.828C34.9654 108.929 35.5667 100.237 41.9803 95.8121C46.7905 92.4934 59.8182 89.3328 66.6326 90.597C66.6326 86.3302 67.8352 82.0633 72.8458 79.2188C80.0611 75.11 90.4832 74.9519 97.899 78.7447C96.0951 76.3742 97.0973 72.8975 99.9032 71.3172C102.709 69.7369 107.119 70.053 109.524 72.1074C100.705 68.1566 99.9032 56.4622 108.321 51.7213C116.739 46.9804 130.368 51.5633 132.172 59.4648C137.784 54.7239 147.805 53.7757 154.82 57.4104C161.634 60.8871 164.841 68.4726 161.634 74.4778C166.645 72.4234 173.058 73.0556 177.468 75.7421C181.877 78.4286 183.881 83.4856 182.278 87.7525C189.293 87.5944 196.709 88.8587 202.12 92.3354C207.532 95.8121 210.538 101.817 208.534 107.19C206.329 112.405 198.512 116.198 191.898 114.144C192.299 120.623 182.679 125.048 174.662 123.942C166.645 122.835 160.231 118.253 154.82 113.512" fill="url(#paint2_linear_62_68)"/>
<path opacity="0.6" d="M410.24 247.931C405.63 256.149 395.007 261.996 383.583 262.47C372.159 262.944 360.735 258.203 354.922 250.618C341.895 258.203 322.253 257.729 309.827 249.67C304.014 254.569 292.791 254.727 286.978 249.828C280.965 244.929 281.567 236.237 287.98 231.812C292.791 228.493 305.818 225.333 312.633 226.597C312.633 222.33 313.835 218.063 318.846 215.219C326.061 211.11 336.483 210.952 343.899 214.745C342.095 212.374 343.097 208.897 345.903 207.317C348.709 205.737 353.119 206.053 355.524 208.107C346.705 204.157 345.903 192.462 354.321 187.721C362.739 182.98 376.368 187.563 378.172 195.465C383.784 190.724 393.805 189.776 400.82 193.41C407.634 196.887 410.841 204.473 407.634 210.478C412.645 208.423 419.058 209.056 423.468 211.742C427.877 214.429 429.881 219.486 428.278 223.752C435.293 223.594 442.709 224.859 448.12 228.335C453.532 231.812 456.538 237.817 454.534 243.19C452.329 248.405 444.512 252.198 437.898 250.144C438.299 256.623 428.679 261.048 420.662 259.942C412.645 258.835 406.231 254.253 400.82 249.512" fill="url(#paint3_linear_62_68)"/>
<g opacity="0.6">
<path d="M18.8193 378.498C63.9149 378.024 95.7827 378.498 134.064 377.866C138.473 377.866 142.883 377.55 146.089 375.179C149.497 372.493 149.296 370.754 149.497 369.648C150.499 363.801 144.887 361.746 140.077 361.43C136.669 361.114 133.262 362.062 130.055 362.853C131.057 359.692 128.652 356.215 124.844 354.793C121.036 353.371 116.226 354.477 114.222 357.163C118.431 354.003 118.431 347.998 114.623 344.363C110.815 340.728 103.8 339.306 98.3881 341.044C92.9766 342.783 89.1686 346.891 88.3669 351.632C88.3669 348.788 85.7613 346.101 82.3541 345.311C78.9469 344.521 75.1388 345.469 73.335 347.84C78.7464 344.521 77.5439 336.619 71.5311 333.459C65.5184 330.298 56.9001 331.878 52.6912 336.303C48.4822 340.728 48.6826 347.049 51.689 352.106C43.8725 349.894 34.6529 355.109 35.2542 361.588C32.8491 357.163 25.4333 354.951 20.2223 356.847C15.0112 358.744 12.8065 364.749 16.0133 368.858C12.0048 366.013 6.99417 366.961 3.9878 370.122C1.5827 372.651 2.98568 376.443 6.79375 377.55C9.80013 378.656 13.8087 379.13 18.8193 378.498Z" fill="url(#paint4_linear_62_68)"/>
<path d="M658.819 49.4977C703.915 49.0236 735.783 49.4977 774.064 48.8656C778.473 48.8656 782.883 48.5495 786.089 46.179C789.497 43.4925 789.296 41.7542 789.497 40.6479C790.499 34.8008 784.887 32.7464 780.077 32.4303C776.669 32.1142 773.262 33.0624 770.055 33.8526C771.057 30.692 768.652 27.2153 764.844 25.793C761.036 24.3707 756.226 25.4769 754.222 28.1635C758.431 25.0028 758.431 18.9976 754.623 15.3629C750.814 11.7282 743.8 10.3059 738.388 12.0442C732.977 13.7826 729.169 17.8914 728.367 22.6323C728.367 19.7878 725.761 17.1013 722.354 16.3111C718.947 15.5209 715.139 16.4691 713.335 18.8396C718.746 15.5209 717.544 7.61937 711.531 4.45874C705.518 1.29811 696.9 2.87842 692.691 7.3033C688.482 11.7282 688.683 18.0494 691.689 23.1064C683.872 20.894 674.653 26.109 675.254 32.5883C672.849 28.1635 665.433 25.951 660.222 27.8474C655.011 29.7438 652.807 35.749 656.013 39.8578C652.005 37.0132 646.994 37.9614 643.988 41.122C641.583 43.6505 642.986 47.4433 646.794 48.5495C649.8 49.6557 653.809 50.1298 658.819 49.4977Z" fill="url(#paint5_linear_62_68)"/>
</g>
<g opacity="0.6">
<path d="M511.819 447.498C556.915 447.024 588.783 447.498 627.064 446.866C631.473 446.866 635.883 446.55 639.089 444.179C642.497 441.493 642.296 439.754 642.497 438.648C643.499 432.801 637.887 430.746 633.077 430.43C629.669 430.114 626.262 431.062 623.055 431.853C624.057 428.692 621.652 425.215 617.844 423.793C614.036 422.371 609.226 423.477 607.222 426.163C611.431 423.003 611.431 416.998 607.623 413.363C603.814 409.728 596.8 408.306 591.388 410.044C585.977 411.783 582.169 415.891 581.367 420.632C581.367 417.788 578.761 415.101 575.354 414.311C571.947 413.521 568.139 414.469 566.335 416.84C571.746 413.521 570.544 405.619 564.531 402.459C558.518 399.298 549.9 400.878 545.691 405.303C541.482 409.728 541.683 416.049 544.689 421.106C536.872 418.894 527.653 424.109 528.254 430.588C525.849 426.163 518.433 423.951 513.222 425.847C508.011 427.744 505.807 433.749 509.013 437.858C505.005 435.013 499.994 435.961 496.988 439.122C494.583 441.651 495.986 445.443 499.794 446.55C502.8 447.656 506.809 448.13 511.819 447.498Z" fill="url(#paint6_linear_62_68)"/>
</g>
<g opacity="0.68" filter="url(#filter1_f_62_68)">
<path d="M2450.24 149.931C2445.63 158.149 2435.01 163.996 2423.58 164.47C2412.16 164.944 2400.73 160.203 2394.92 152.618C2381.89 160.203 2362.25 159.729 2349.83 151.67C2344.01 156.569 2332.79 156.727 2326.98 151.828C2320.97 146.929 2321.57 138.237 2327.98 133.812C2332.79 130.493 2345.82 127.333 2352.63 128.597C2352.63 124.33 2353.84 120.063 2358.85 117.219C2366.06 113.11 2376.48 112.952 2383.9 116.745C2382.1 114.374 2383.1 110.898 2385.9 109.317C2388.71 107.737 2393.12 108.053 2395.52 110.107C2386.7 106.157 2385.9 94.4622 2394.32 89.7213C2402.74 84.9804 2416.37 89.5633 2418.17 97.4648C2423.78 92.7239 2433.8 91.7757 2440.82 95.4104C2447.63 98.8871 2450.84 106.473 2447.63 112.478C2452.64 110.423 2459.06 111.056 2463.47 113.742C2467.88 116.429 2469.88 121.486 2468.28 125.752C2475.29 125.594 2482.71 126.859 2488.12 130.335C2493.53 133.812 2496.54 139.817 2494.53 145.19C2492.33 150.405 2484.51 154.198 2477.9 152.144C2478.3 158.623 2468.68 163.048 2460.66 161.942C2452.64 160.835 2446.23 156.253 2440.82 151.512" fill="url(#paint7_linear_62_68)"/>
<path d="M2137.24 369.931C2132.63 378.149 2122.01 383.996 2110.58 384.47C2099.16 384.944 2087.73 380.203 2081.92 372.618C2068.89 380.203 2049.25 379.729 2036.83 371.67C2031.01 376.569 2019.79 376.727 2013.98 371.828C2007.97 366.929 2008.57 358.237 2014.98 353.812C2019.79 350.493 2032.82 347.333 2039.63 348.597C2039.63 344.33 2040.84 340.063 2045.85 337.219C2053.06 333.11 2063.48 332.952 2070.9 336.745C2069.1 334.374 2070.1 330.898 2072.9 329.317C2075.71 327.737 2080.12 328.053 2082.52 330.107C2073.7 326.157 2072.9 314.462 2081.32 309.721C2089.74 304.98 2103.37 309.563 2105.17 317.465C2110.78 312.724 2120.8 311.776 2127.82 315.41C2134.63 318.887 2137.84 326.473 2134.63 332.478C2139.64 330.423 2146.06 331.056 2150.47 333.742C2154.88 336.429 2156.88 341.486 2155.28 345.753C2162.29 345.594 2169.71 346.859 2175.12 350.335C2180.53 353.812 2183.54 359.817 2181.53 365.19C2179.33 370.405 2171.51 374.198 2164.9 372.144C2165.3 378.623 2155.68 383.048 2147.66 381.942C2139.64 380.835 2133.23 376.253 2127.82 371.512" fill="url(#paint8_linear_62_68)"/>
<path d="M1394.24 485.931C1389.63 494.149 1379.01 499.996 1367.58 500.47C1356.16 500.944 1344.73 496.203 1338.92 488.618C1325.89 496.203 1306.25 495.729 1293.83 487.67C1288.01 492.569 1276.79 492.727 1270.98 487.828C1264.97 482.929 1265.57 474.237 1271.98 469.812C1276.79 466.493 1289.82 463.333 1296.63 464.597C1296.63 460.33 1297.84 456.063 1302.85 453.219C1310.06 449.11 1320.48 448.952 1327.9 452.745C1326.1 450.374 1327.1 446.898 1329.9 445.317C1332.71 443.737 1337.12 444.053 1339.52 446.107C1330.7 442.157 1329.9 430.462 1338.32 425.721C1346.74 420.98 1360.37 425.563 1362.17 433.465C1367.78 428.724 1377.8 427.776 1384.82 431.41C1391.63 434.887 1394.84 442.473 1391.63 448.478C1396.64 446.423 1403.06 447.056 1407.47 449.742C1411.88 452.429 1413.88 457.486 1412.28 461.752C1419.29 461.594 1426.71 462.859 1432.12 466.335C1437.53 469.812 1440.54 475.817 1438.53 481.19C1436.33 486.405 1428.51 490.198 1421.9 488.144C1422.3 494.623 1412.68 499.048 1404.66 497.942C1396.64 496.835 1390.23 492.253 1384.82 487.512" fill="url(#paint9_linear_62_68)"/>
<path d="M1804.24 208.931C1799.63 217.149 1789.01 222.996 1777.58 223.47C1766.16 223.944 1754.73 219.203 1748.92 211.618C1735.89 219.203 1716.25 218.729 1703.83 210.67C1698.01 215.569 1686.79 215.727 1680.98 210.828C1674.97 205.929 1675.57 197.237 1681.98 192.812C1686.79 189.493 1699.82 186.333 1706.63 187.597C1706.63 183.33 1707.84 179.063 1712.85 176.219C1720.06 172.11 1730.48 171.952 1737.9 175.745C1736.1 173.374 1737.1 169.897 1739.9 168.317C1742.71 166.737 1747.12 167.053 1749.52 169.107C1740.7 165.157 1739.9 153.462 1748.32 148.721C1756.74 143.98 1770.37 148.563 1772.17 156.465C1777.78 151.724 1787.8 150.776 1794.82 154.41C1801.63 157.887 1804.84 165.473 1801.63 171.478C1806.64 169.423 1813.06 170.056 1817.47 172.742C1821.88 175.429 1823.88 180.486 1822.28 184.752C1829.29 184.594 1836.71 185.859 1842.12 189.335C1847.53 192.812 1850.54 198.817 1848.53 204.19C1846.33 209.405 1838.51 213.198 1831.9 211.144C1832.3 217.623 1822.68 222.048 1814.66 220.942C1806.64 219.835 1800.23 215.253 1794.82 210.512" fill="url(#paint10_linear_62_68)"/>
<path d="M1520.82 49.4977C1565.91 49.0236 1597.78 49.4977 1636.06 48.8656C1640.47 48.8656 1644.88 48.5495 1648.09 46.179C1651.5 43.4925 1651.3 41.7542 1651.5 40.6479C1652.5 34.8008 1646.89 32.7464 1642.08 32.4303C1638.67 32.1142 1635.26 33.0624 1632.06 33.8526C1633.06 30.692 1630.65 27.2153 1626.84 25.793C1623.04 24.3707 1618.23 25.4769 1616.22 28.1635C1620.43 25.0028 1620.43 18.9976 1616.62 15.3629C1612.81 11.7282 1605.8 10.3059 1600.39 12.0442C1594.98 13.7826 1591.17 17.8914 1590.37 22.6323C1590.37 19.7878 1587.76 17.1012 1584.35 16.3111C1580.95 15.5209 1577.14 16.4691 1575.33 18.8396C1580.75 15.5209 1579.54 7.61936 1573.53 4.45873C1567.52 1.29811 1558.9 2.87842 1554.69 7.3033C1550.48 11.7282 1550.68 18.0494 1553.69 23.1064C1545.87 20.894 1536.65 26.1091 1537.25 32.5883C1534.85 28.1635 1527.43 25.951 1522.22 27.8474C1517.01 29.7438 1514.81 35.749 1518.01 39.8578C1514 37.0132 1508.99 37.9614 1505.99 41.122C1503.58 43.6505 1504.99 47.4433 1508.79 48.5495C1511.8 49.6557 1515.81 50.1298 1520.82 49.4977Z" fill="url(#paint11_linear_62_68)"/>
<path d="M1927.82 96.4977C1972.91 96.0236 2004.78 96.4977 2043.06 95.8656C2047.47 95.8656 2051.88 95.5495 2055.09 93.179C2058.5 90.4925 2058.3 88.7542 2058.5 87.6479C2059.5 81.8008 2053.89 79.7464 2049.08 79.4303C2045.67 79.1142 2042.26 80.0624 2039.06 80.8526C2040.06 77.692 2037.65 74.2153 2033.84 72.793C2030.04 71.3707 2025.23 72.4769 2023.22 75.1635C2027.43 72.0028 2027.43 65.9976 2023.62 62.3629C2019.81 58.7282 2012.8 57.3059 2007.39 59.0442C2001.98 60.7826 1998.17 64.8914 1997.37 69.6323C1997.37 66.7878 1994.76 64.1013 1991.35 63.3111C1987.95 62.5209 1984.14 63.4691 1982.33 65.8396C1987.75 62.5209 1986.54 54.6194 1980.53 51.4587C1974.52 48.2981 1965.9 49.8784 1961.69 54.3033C1957.48 58.7282 1957.68 65.0494 1960.69 70.1064C1952.87 67.894 1943.65 73.109 1944.25 79.5883C1941.85 75.1635 1934.43 72.951 1929.22 74.8474C1924.01 76.7438 1921.81 82.749 1925.01 86.8578C1921 84.0132 1915.99 84.9614 1912.99 88.122C1910.58 90.6505 1911.99 94.4433 1915.79 95.5495C1918.8 96.6557 1922.81 97.1298 1927.82 96.4977Z" fill="url(#paint12_linear_62_68)"/>
<path d="M2395.82 461.498C2440.91 461.024 2472.78 461.498 2511.06 460.866C2515.47 460.866 2519.88 460.55 2523.09 458.179C2526.5 455.493 2526.3 453.754 2526.5 452.648C2527.5 446.801 2521.89 444.746 2517.08 444.43C2513.67 444.114 2510.26 445.062 2507.06 445.853C2508.06 442.692 2505.65 439.215 2501.84 437.793C2498.04 436.371 2493.23 437.477 2491.22 440.163C2495.43 437.003 2495.43 430.998 2491.62 427.363C2487.81 423.728 2480.8 422.306 2475.39 424.044C2469.98 425.783 2466.17 429.891 2465.37 434.632C2465.37 431.788 2462.76 429.101 2459.35 428.311C2455.95 427.521 2452.14 428.469 2450.33 430.84C2455.75 427.521 2454.54 419.619 2448.53 416.459C2442.52 413.298 2433.9 414.878 2429.69 419.303C2425.48 423.728 2425.68 430.049 2428.69 435.106C2420.87 432.894 2411.65 438.109 2412.25 444.588C2409.85 440.163 2402.43 437.951 2397.22 439.847C2392.01 441.744 2389.81 447.749 2393.01 451.858C2389 449.013 2383.99 449.961 2380.99 453.122C2378.58 455.651 2379.99 459.443 2383.79 460.55C2386.8 461.656 2390.81 462.13 2395.82 461.498Z" fill="url(#paint13_linear_62_68)"/>
</g>
</g>
</g>
<defs>
<filter id="filter0_f_62_68" x="-1.21593e-05" y="4.88758e-05" width="2529.41" height="503.303" filterUnits="userSpaceOnUse" color-interpolation-filters="sRGB">
<feFlood flood-opacity="0" result="BackgroundImageFix"/>
<feBlend mode="normal" in="SourceGraphic" in2="BackgroundImageFix" result="shape"/>
<feGaussianBlur stdDeviation="1.4" result="effect1_foregroundBlur_62_68"/>
</filter>
<filter id="filter1_f_62_68" x="1264" y="4.88758e-05" width="1265.41" height="503.303" filterUnits="userSpaceOnUse" color-interpolation-filters="sRGB">
<feFlood flood-opacity="0" result="BackgroundImageFix"/>
<feBlend mode="normal" in="SourceGraphic" in2="BackgroundImageFix" result="shape"/>
<feGaussianBlur stdDeviation="1.4" result="effect1_foregroundBlur_62_68"/>
</filter>
<linearGradient id="paint0_linear_62_68" x1="1228.96" y1="175.057" x2="1228.96" y2="98.1508" gradientUnits="userSpaceOnUse">
<stop offset="1" stop-color="white"/>
</linearGradient>
<linearGradient id="paint1_linear_62_68" x1="493.781" y1="284.562" x2="493.781" y2="207.656" gradientUnits="userSpaceOnUse">
<stop stop-color="white"/>
</linearGradient>
<linearGradient id="paint2_linear_62_68" x1="-360.091" y1="175.783" x2="-360.091" y2="98.8763" gradientUnits="userSpaceOnUse">
<stop offset="0.042029" stop-color="#F6FAE3"/>
<stop offset="1" stop-color="white"/>
</linearGradient>
<linearGradient id="paint3_linear_62_68" x1="503.819" y1="145.367" x2="503.819" y2="68.4606" gradientUnits="userSpaceOnUse">
<stop offset="1" stop-color="white"/>
</linearGradient>
<linearGradient id="paint4_linear_62_68" x1="97.6502" y1="-13.0913" x2="106.038" y2="53.5254" gradientUnits="userSpaceOnUse">
<stop offset="1" stop-color="white"/>
</linearGradient>
<linearGradient id="paint5_linear_62_68" x1="817.019" y1="-92.7912" x2="825.407" y2="-26.1745" gradientUnits="userSpaceOnUse">
<stop offset="0.042029" stop-color="#F6FAE3"/>
<stop offset="1" stop-color="white"/>
</linearGradient>
<linearGradient id="paint6_linear_62_68" x1="555.776" y1="388.487" x2="564.164" y2="455.103" gradientUnits="userSpaceOnUse">
<stop offset="0.042029" stop-color="#F6FAE3"/>
<stop offset="1" stop-color="white"/>
</linearGradient>
<linearGradient id="paint7_linear_62_68" x1="2408.96" y1="166.057" x2="2408.96" y2="89.1508" gradientUnits="userSpaceOnUse">
<stop offset="1" stop-color="white"/>
</linearGradient>
<linearGradient id="paint8_linear_62_68" x1="1646.78" y1="361.562" x2="1646.78" y2="284.656" gradientUnits="userSpaceOnUse">
<stop stop-color="white"/>
</linearGradient>
<linearGradient id="paint9_linear_62_68" x1="869.909" y1="549.783" x2="869.909" y2="472.876" gradientUnits="userSpaceOnUse">
<stop offset="0.042029" stop-color="#F6FAE3"/>
<stop offset="1" stop-color="white"/>
</linearGradient>
<linearGradient id="paint10_linear_62_68" x1="1897.82" y1="106.367" x2="1897.82" y2="29.4606" gradientUnits="userSpaceOnUse">
<stop offset="1" stop-color="white"/>
</linearGradient>
<linearGradient id="paint11_linear_62_68" x1="1599.65" y1="-342.091" x2="1608.04" y2="-275.475" gradientUnits="userSpaceOnUse">
<stop offset="1" stop-color="white"/>
</linearGradient>
<linearGradient id="paint12_linear_62_68" x1="2086.02" y1="-45.7912" x2="2094.41" y2="20.8255" gradientUnits="userSpaceOnUse">
<stop offset="0.042029" stop-color="#F6FAE3"/>
<stop offset="1" stop-color="white"/>
</linearGradient>
<linearGradient id="paint13_linear_62_68" x1="2439.78" y1="402.487" x2="2448.16" y2="469.103" gradientUnits="userSpaceOnUse">
<stop offset="0.042029" stop-color="#F6FAE3"/>
<stop offset="1" stop-color="white"/>
</linearGradient>
</defs>
</svg>
