<svg width="173" height="77" viewBox="0 0 173 77" fill="none" xmlns="http://www.w3.org/2000/svg">
<path d="M127.44 62.1312C122.83 70.3489 112.207 76.196 100.783 76.6701C89.359 77.1442 77.9347 72.4033 72.1224 64.8178C59.0947 72.4033 39.453 71.9292 27.0267 63.8696C21.2143 68.7686 9.99053 68.9266 4.17819 64.0276C-1.83456 59.1286 -1.23329 50.4369 5.18032 46.012C9.99053 42.6934 23.0182 39.5327 29.8326 40.797C29.8326 36.5301 31.0352 32.2633 36.0458 29.4187C43.2611 25.3099 53.6832 25.1519 61.099 28.9446C59.2952 26.5742 60.2973 23.0975 63.1032 21.5172C65.9092 19.9368 70.3186 20.2529 72.7237 22.3073C63.9049 18.3565 63.1032 6.6622 71.5211 1.92126C79.939 -2.81969 93.5679 1.76323 95.3717 9.6648C100.984 4.92386 111.005 3.97567 118.02 7.61039C124.834 11.0871 128.041 18.6726 124.834 24.6778C129.845 22.6234 136.258 23.2555 140.668 25.942C145.077 28.6286 147.081 33.6856 145.478 37.9524C152.493 37.7944 159.909 39.0587 165.32 42.5353C170.732 46.012 173.738 52.0172 171.734 57.3903C169.529 62.6053 161.712 66.3981 155.098 64.3437C155.499 70.823 145.879 75.2479 137.862 74.1416C129.845 73.0354 123.431 68.4525 118.02 63.7116" fill="url(#paint0_linear_27_1709)"/>
<defs>
<linearGradient id="paint0_linear_27_1709" x1="86.1646" y1="78.2569" x2="86.1646" y2="1.35077" gradientUnits="userSpaceOnUse">
<stop offset="1" stop-color="white"/>
</linearGradient>
</defs>
</svg>
