<svg width="147" height="47" viewBox="0 0 147 47" fill="none" xmlns="http://www.w3.org/2000/svg">
<path d="M16.0193 46.6976C61.115 46.2236 92.9826 46.6976 131.264 46.0655C135.673 46.0655 140.083 45.7495 143.289 43.379C146.697 40.6925 146.496 38.9541 146.697 37.8479C147.699 32.0007 142.087 29.9463 137.277 29.6303C133.869 29.3142 130.462 30.2624 127.255 31.0525C128.257 27.8919 125.852 24.4152 122.044 22.9929C118.236 21.5706 113.426 22.6769 111.422 25.3634C115.631 22.2028 115.631 16.1976 111.823 12.5629C108.015 8.92813 101 7.50585 95.5881 9.2442C90.1767 10.9825 86.3686 15.0914 85.5669 19.8323C85.5669 16.9877 82.9613 14.3012 79.5541 13.511C76.1469 12.7209 72.3388 13.6691 70.535 16.0395C75.9465 12.7209 74.7439 4.81932 68.7311 1.65869C62.7184 -1.50194 54.1001 0.0783715 49.8912 4.50325C45.6822 8.92813 45.8827 15.2494 48.889 20.3064C41.0725 18.094 31.8529 23.309 32.4542 29.7883C30.0491 25.3634 22.6333 23.151 17.4223 25.0473C12.2112 26.9437 10.0065 32.9489 13.2133 37.0577C9.20483 34.2132 4.1942 35.1614 1.18782 38.322C-1.21729 40.8505 0.18569 44.6432 3.99377 45.7495C7.00015 46.8557 11.0087 47.3298 16.0193 46.6976Z" fill="url(#paint0_linear_27_1715)"/>
<defs>
<linearGradient id="paint0_linear_27_1715" x1="174.219" y1="-95.5913" x2="182.607" y2="-28.9746" gradientUnits="userSpaceOnUse">
<stop offset="0.042029" stop-color="#F6FAE3"/>
<stop offset="1" stop-color="white"/>
</linearGradient>
</defs>
</svg>
